<?xml version="1.0" standalone="no"?>
<!DOCTYPE svg PUBLIC "-//W3C//DTD SVG 20010904//EN"
 "http://www.w3.org/TR/2001/REC-SVG-20010904/DTD/svg10.dtd">
<svg version="1.0" xmlns="http://www.w3.org/2000/svg"
 width="1000.000000pt" height="1000.000000pt" viewBox="0 0 1000.000000 1000.000000"
 preserveAspectRatio="xMidYMid meet">
<metadata>
Created by potrace 1.11, written by Peter Selinger 2001-2013
</metadata>
<g transform="translate(0.000000,1000.000000) scale(0.100000,-0.100000)"
fill="#000000" stroke="none">
<path d="M5108 7735 c-2 -1 -46 -5 -98 -9 -52 -4 -122 -11 -155 -16 -33 -5
-78 -11 -100 -15 -205 -30 -547 -129 -735 -212 -19 -8 -51 -22 -70 -31 -173
-76 -391 -190 -340 -178 14 3 111 28 215 55 158 41 243 61 320 77 77 15 179
34 215 40 25 3 53 8 64 10 10 2 44 6 75 10 31 3 65 8 75 10 61 11 217 19 396
19 245 0 377 -8 545 -35 33 -5 78 -12 100 -15 22 -3 51 -7 65 -10 14 -3 59
-12 100 -20 72 -14 239 -51 270 -59 8 -2 38 -9 65 -16 28 -6 141 -33 252 -60
177 -44 392 -93 461 -106 72 -14 171 -30 237 -39 22 -3 58 -8 79 -11 114 -18
299 -28 476 -27 145 0 326 9 360 18 8 2 42 6 75 10 33 3 96 13 140 21 44 9 94
18 110 21 55 9 329 82 390 103 33 12 67 23 75 25 41 9 321 125 445 185 179 86
319 164 280 155 -53 -12 -59 -14 -135 -35 -41 -12 -82 -23 -90 -25 -8 -2 -42
-11 -75 -20 -208 -56 -516 -125 -628 -140 -17 -2 -50 -7 -72 -10 -121 -19
-212 -29 -355 -41 -109 -9 -510 -9 -615 -1 -163 14 -397 48 -560 82 -38 8 -81
17 -95 19 -14 2 -95 21 -180 41 -85 20 -166 39 -180 42 -14 2 -59 13 -100 23
-131 33 -318 73 -495 106 -22 4 -47 9 -55 10 -30 6 -248 33 -330 40 -59 5
-418 13 -422 9z"/>
<path d="M2287 6874 c-1 -1 -56 -4 -122 -8 -335 -18 -668 -102 -933 -235 -455
-229 -761 -604 -890 -1091 -43 -161 -56 -277 -57 -490 0 -217 7 -309 32 -430
8 -41 17 -84 19 -94 6 -30 53 -187 68 -226 7 -19 19 -51 26 -70 39 -100 173
-332 239 -412 185 -225 368 -372 621 -498 120 -60 305 -125 415 -146 11 -2 40
-8 65 -13 177 -39 544 -47 721 -16 13 2 40 6 59 9 95 12 272 45 380 71 158 38
483 157 551 203 l27 17 -38 88 c-21 49 -41 91 -43 94 -3 2 -65 -16 -139 -40
-157 -53 -219 -71 -313 -93 -90 -20 -94 -21 -152 -29 -26 -4 -59 -9 -73 -12
-47 -9 -385 -11 -458 -3 -229 27 -362 65 -547 155 -326 161 -559 417 -697 770
-32 79 -70 204 -84 268 -14 67 -24 121 -29 159 -3 24 -10 77 -15 118 -10 77
-7 472 4 525 4 17 13 68 22 115 74 417 303 747 638 920 70 36 221 93 276 104
79 15 141 25 191 31 67 7 294 8 329 1 14 -2 45 -7 70 -10 292 -38 534 -172
661 -367 52 -79 95 -197 101 -277 l2 -33 56 6 c30 3 65 8 78 11 l23 5 -6 142
c-3 78 -8 174 -10 212 -2 39 -7 129 -10 200 -12 255 -9 250 -191 281 -16 2
-42 7 -59 11 -16 3 -39 7 -50 9 -11 1 -64 10 -119 19 -181 29 -298 42 -436 44
-58 2 -127 4 -153 5 -26 1 -49 1 -50 0z"/>
<path d="M4998 6865 c-2 -1 -34 -5 -73 -9 -85 -8 -128 -14 -180 -28 -22 -5
-49 -12 -59 -14 -70 -13 -231 -79 -310 -127 -184 -111 -325 -289 -382 -482
-35 -123 -48 -300 -30 -430 28 -199 96 -364 248 -593 26 -41 48 -75 48 -77 0
-2 -37 -29 -82 -61 -256 -178 -422 -327 -501 -447 -78 -118 -124 -230 -145
-351 -11 -66 -7 -306 7 -366 41 -179 109 -300 242 -432 117 -117 283 -208 468
-257 87 -24 91 -24 159 -36 23 -4 54 -9 70 -12 49 -9 426 -11 487 -3 33 5 80
11 105 14 25 3 56 8 70 11 14 3 41 8 60 11 76 13 309 82 385 114 85 36 173 79
248 122 l88 50 66 -59 c152 -135 250 -216 275 -229 21 -11 60 -13 173 -10 80
3 149 7 153 9 4 3 34 8 67 12 144 16 215 46 215 91 0 19 -72 89 -270 264 -47
41 -87 77 -90 80 -8 8 -195 174 -199 177 -2 1 11 17 28 35 49 49 136 168 186
252 96 163 137 281 162 461 7 57 8 227 0 265 -47 236 -113 375 -255 537 l-54
62 -51 -28 c-29 -15 -126 -68 -217 -116 -200 -107 -218 -119 -216 -144 0 -11
29 -48 64 -83 263 -267 353 -548 262 -821 -29 -85 -90 -209 -108 -221 -9 -5
-29 11 -152 124 -47 43 -95 87 -107 97 -80 70 -439 412 -607 579 -505 502
-703 797 -742 1104 -34 278 61 528 243 636 93 55 180 77 307 76 193 -2 322
-88 386 -258 27 -73 30 -93 35 -218 3 -60 6 -111 9 -113 10 -11 204 -9 257 2
130 27 223 99 250 193 23 78 17 206 -13 279 -29 71 -53 103 -126 164 -154 129
-397 198 -724 204 -70 1 -129 1 -130 0z m-523 -2020 c149 -174 565 -590 819
-820 6 -5 63 -57 126 -115 64 -58 155 -141 203 -184 68 -62 85 -82 76 -92 -17
-20 -204 -109 -290 -138 -124 -41 -242 -59 -389 -60 -154 -1 -207 5 -325 41
-260 77 -465 284 -539 543 -66 232 -51 480 39 660 42 82 184 256 204 248 4 -2
38 -39 76 -83z"/>
<path d="M7747 6854 c-1 -1 -63 -4 -137 -8 -74 -3 -151 -8 -170 -10 -19 -2
-69 -7 -110 -11 -41 -4 -82 -9 -91 -10 -9 -2 -40 -6 -70 -10 -30 -3 -65 -8
-79 -10 -14 -2 -45 -7 -70 -10 -25 -3 -56 -8 -70 -10 -128 -19 -257 -38 -268
-38 -11 0 -13 -17 -8 -80 3 -44 8 -83 11 -85 2 -3 47 -4 100 -3 169 3 252 -48
271 -166 4 -21 7 -742 7 -1603 l0 -1564 23 -23 c22 -22 31 -23 156 -24 141 -1
206 -4 328 -13 41 -4 116 -10 165 -14 123 -10 593 -9 685 1 174 19 397 82 547
153 307 147 516 433 559 764 13 97 6 245 -15 329 -24 95 -85 224 -138 290
-138 173 -366 312 -608 372 -49 12 -94 25 -98 29 -4 3 12 13 35 20 24 8 85 35
136 62 277 143 468 381 526 654 18 86 18 259 0 339 -91 399 -469 626 -1119
671 -86 6 -493 12 -498 8z m323 -258 c284 -35 466 -131 584 -310 37 -55 77
-153 91 -221 20 -98 16 -294 -9 -410 -25 -117 -108 -243 -210 -319 -100 -76
-285 -138 -483 -161 -72 -9 -362 -17 -385 -12 l-23 6 0 678 c1 515 4 683 13
700 16 30 43 43 100 50 26 3 48 6 50 8 5 4 217 -3 272 -9z m-12 -1690 c262
-29 399 -68 523 -148 78 -51 117 -86 160 -145 132 -178 181 -430 134 -683 -9
-49 -51 -150 -81 -198 -95 -148 -231 -242 -427 -294 -68 -18 -111 -22 -252
-22 -188 -1 -341 10 -445 32 l-35 8 0 719 c-1 396 3 725 7 731 9 12 306 12
416 0z"/>
<path d="M1828 2825 c-2 -1 -43 -5 -93 -9 -324 -21 -723 -119 -1015 -248 -14
-6 -34 -14 -45 -18 -44 -17 -376 -183 -372 -186 2 -2 37 5 78 16 41 11 82 23
92 25 10 2 27 7 37 10 10 3 28 8 40 10 13 2 60 14 106 25 47 12 94 23 107 26
12 2 33 6 47 9 14 4 36 8 50 11 14 3 57 11 97 19 39 8 89 17 110 20 21 3 49 8
63 11 14 2 45 7 70 9 25 3 59 7 75 9 197 28 639 28 835 2 14 -2 50 -6 80 -10
30 -4 118 -18 195 -31 173 -31 177 -31 250 -49 33 -9 71 -17 85 -20 14 -2 106
-25 205 -49 99 -25 191 -48 205 -51 14 -3 54 -12 90 -21 171 -43 495 -105 625
-120 33 -4 74 -9 90 -11 190 -22 642 -23 760 0 11 2 43 7 70 10 94 13 120 17
195 32 109 22 233 52 330 80 47 14 92 27 100 29 103 26 575 221 632 261 7 5
57 32 110 59 53 27 95 51 93 53 -1 2 -95 -22 -206 -52 -210 -57 -467 -121
-529 -131 -19 -3 -42 -8 -50 -10 -8 -2 -31 -6 -50 -9 -19 -3 -46 -8 -60 -11
-13 -2 -42 -7 -65 -10 -22 -3 -47 -8 -55 -10 -8 -2 -37 -6 -65 -9 -27 -4 -66
-9 -85 -11 -261 -40 -760 -39 -1030 1 -19 2 -50 7 -67 9 -81 12 -105 15 -136
20 -28 5 -232 47 -292 60 -45 10 -162 36 -185 41 -14 3 -81 19 -150 35 -215
52 -344 81 -415 94 -175 33 -300 54 -350 60 -33 3 -73 8 -90 10 -108 14 -506
30 -517 20z"/>
</g>
</svg>
