<?xml version="1.0" encoding="utf-8"?>
<!-- Generator: Adobe Illustrator 16.0.0, SVG Export Plug-In . SVG Version: 6.00 Build 0)  -->
<!DOCTYPE svg PUBLIC "-//W3C//DTD SVG 1.1//EN" "http://www.w3.org/Graphics/SVG/1.1/DTD/svg11.dtd">
<svg version="1.1" id="Layer_1" xmlns="http://www.w3.org/2000/svg" xmlns:xlink="http://www.w3.org/1999/xlink" x="0px" y="0px"
	 width="2249px" height="597.946px" viewBox="0 0 2249 597.946" enable-background="new 0 0 2249 597.946" xml:space="preserve">
<path fill="#F5E9D9" d="M1562.589,243.878c0,16.062-13.021,29.08-29.08,29.08c-16.062,0-29.08-13.019-29.08-29.08
	c0-16.061,13.019-29.08,29.08-29.08C1549.568,214.798,1562.589,227.817,1562.589,243.878"/>
<path fill="#F49E53" d="M2053.134,145.552c0,16.062-13.021,29.08-29.08,29.08c-16.062,0-29.08-13.019-29.08-29.08
	c0-16.061,13.019-29.08,29.08-29.08C2040.113,116.472,2053.134,129.491,2053.134,145.552"/>
<path fill="#E44798" d="M1892.365,310.274c0,16.061-13.02,29.08-29.08,29.08s-29.08-13.02-29.08-29.08
	c0-16.061,13.02-29.081,29.08-29.081S1892.365,294.213,1892.365,310.274"/>
<path fill="#E44798" d="M2249,209.256c0,19.121-15.501,34.622-34.623,34.622s-34.623-15.501-34.623-34.622
	c0-19.122,15.501-34.624,34.623-34.624S2249,190.134,2249,209.256"/>
<path fill="#5C3D3E" d="M654.537,131.627c0,15.69-12.72,28.41-28.411,28.41c-15.69,0-28.41-12.72-28.41-28.41
	c0-15.689,12.72-28.41,28.41-28.41C641.816,103.217,654.537,115.938,654.537,131.627"/>
<path fill="#5C3D3E" d="M343.231,396.174c0,15.691-12.72,28.412-28.411,28.412s-28.41-12.721-28.41-28.412
	c0-15.689,12.719-28.41,28.41-28.41S343.231,380.485,343.231,396.174"/>
<path fill="#F5E9D9" d="M116.072,286.196c0,15.691-12.72,28.41-28.411,28.41c-15.69,0-28.41-12.719-28.41-28.41
	c0-15.69,12.72-28.41,28.41-28.41C103.352,257.786,116.072,270.506,116.072,286.196"/>
<path fill="#F49E53" d="M626.126,396.174c0,15.691-12.72,28.412-28.41,28.412c-15.691,0-28.411-12.721-28.411-28.412
	c0-15.689,12.72-28.41,28.411-28.41C613.406,367.764,626.126,380.485,626.126,396.174"/>
<path fill="#F5E9D9" d="M372.312,174.632c0,16.062-13.02,29.081-29.08,29.081c-16.061,0-29.081-13.02-29.081-29.081
	c0-16.061,13.02-29.08,29.081-29.08C359.292,145.552,372.312,158.571,372.312,174.632"/>
<path fill="#F49E53" d="M1327.015,424.586c0,16.061-13.021,29.08-29.081,29.08c-16.061,0-29.08-13.02-29.08-29.08
	s13.02-29.08,29.08-29.08C1313.993,395.506,1327.015,408.526,1327.015,424.586"/>
<path fill="#E44798" d="M534.896,220.391c0,16.062-13.02,29.08-29.081,29.08s-29.081-13.019-29.081-29.08
	c0-16.061,13.02-29.08,29.081-29.08S534.896,204.33,534.896,220.391"/>
<path fill="#5C3D3E" d="M252.704,96.541c0,19.122-15.501,34.623-34.623,34.623s-34.624-15.501-34.624-34.623
	s15.502-34.623,34.624-34.623S252.704,77.419,252.704,96.541"/>
<path fill="#E44798" d="M1172.465,286.195c0,19.122-15.501,34.624-34.622,34.624c-19.122,0-34.623-15.502-34.623-34.624
	c0-19.121,15.501-34.622,34.623-34.622C1156.964,251.573,1172.465,267.074,1172.465,286.195"/>
<path fill="#E44798" d="M828.768,185.769c0,19.121-15.501,34.622-34.624,34.622c-19.121,0-34.623-15.501-34.623-34.622
	c0-19.122,15.502-34.624,34.623-34.624C813.267,151.145,828.768,166.646,828.768,185.769"/>
<polygon fill="#F49E53" points="499.468,597.946 427.266,568.415 400.528,457.346 447.394,504.213 "/>
<polygon fill="#5C3D3E" points="349.938,0 422.604,28.373 451.117,138.997 403.506,92.888 "/>
<polygon fill="#F5E9D9" points="0,102.957 52.788,69.499 127.411,121.171 135.004,168.686 "/>
<polygon fill="#F5E9D9" points="1695.51,476.43 1755.023,457.346 1814.225,526.149 1809.605,574.043 "/>
<polygon fill="#F49E53" points="1777.881,219.828 1741.43,270.6 1695.51,112.257 1749.24,145.623 "/>
<polygon fill="#E44798" points="1294.864,541.856 1213.234,576.504 1121.78,515.417 1187.934,508.678 "/>
</svg>
