<?xml version="1.0" encoding="utf-8"?>
<!-- Generator: Adobe Illustrator 16.0.0, SVG Export Plug-In . SVG Version: 6.00 Build 0)  -->
<!DOCTYPE svg PUBLIC "-//W3C//DTD SVG 1.1//EN" "http://www.w3.org/Graphics/SVG/1.1/DTD/svg11.dtd">
<svg version="1.1" id="Layer_1" xmlns="http://www.w3.org/2000/svg" xmlns:xlink="http://www.w3.org/1999/xlink" x="0px" y="0px"
	 width="789.149px" height="513.295px" viewBox="0 0 789.149 513.295" enable-background="new 0 0 789.149 513.295"
	 xml:space="preserve">
<path fill="#9F1D24" d="M450.618,191.749L83.84,364.206c-9.034,4.248-19.803,0.369-24.05-8.666L1.722,232.044
	c-4.248-9.034-0.368-19.803,8.667-24.051L377.167,35.536c9.035-4.248,19.803-0.367,24.051,8.667l58.068,123.496
	C463.534,176.733,459.653,187.5,450.618,191.749"/>
<polygon fill="#F8F3F3" points="107.36,304.229 66.604,217.548 125.448,189.879 133.714,207.459 94.891,225.714 103.674,244.394 
	135.66,229.354 143.295,245.591 111.31,260.631 127.382,294.815 "/>
<path fill="#F8F3F3" d="M176.337,271.797l-40.758-86.681l39.068-18.369c4.068-1.914,8.233-2.829,12.498-2.747
	c4.262,0.083,8.306,0.917,12.13,2.496c3.823,1.581,7.272,3.788,10.342,6.618c3.069,2.831,5.447,6.035,7.13,9.615
	c1.263,2.686,2.153,5.425,2.669,8.213c0.515,2.79,0.68,5.566,0.493,8.339c-0.188,2.771-0.745,5.446-1.672,8.017
	c-0.928,2.574-2.203,4.986-3.826,7.24l35.054,22.873l-22.586,10.62l-30.603-19.748l-13.063,6.143l13.145,27.958L176.337,271.797z
	 M175.004,216.967l18.313-8.61c2.359-1.11,3.869-3.186,4.525-6.229c0.658-3.042,0.162-6.312-1.483-9.813
	c-1.684-3.58-3.999-5.97-6.948-7.168c-2.949-1.198-5.564-1.261-7.841-0.19l-17.703,8.324L175.004,216.967z"/>
<polygon fill="#F8F3F3" points="312.008,186.537 320.274,204.117 259.354,232.762 218.596,146.081 278.418,117.953 286.684,135.533 
	246.884,154.247 254.806,171.096 288.991,155.022 296.626,171.26 262.441,187.333 271.109,205.767 "/>
<polygon fill="#F8F3F3" points="385.381,152.037 393.647,169.617 332.727,198.262 291.969,111.581 351.792,83.453 360.057,101.033 
	320.257,119.747 328.179,136.596 362.364,120.522 370,136.76 335.814,152.833 344.482,171.267 "/>
<path fill-rule="evenodd" clip-rule="evenodd" fill="#B64B40" d="M576.106,114.423c112.291,0,203.321,79.815,203.321,178.275
	c0,98.457-190.679,178.273-203.321,178.273c-12.642,0-203.32-79.816-203.32-178.273
	C372.786,194.239,463.815,114.423,576.106,114.423"/>
<path fill-rule="evenodd" clip-rule="evenodd" fill="#D0574D" d="M619.18,118.447c59.354,11.228,109.063,45.172,136.708,90.938
	c-22.687,27.328-85.88,46.986-160.294,46.986c-93.482,0-169.266-31.027-169.266-69.3c0-8.723,3.949-17.067,11.138-24.758
	c9.922-8.116,20.769-15.371,32.388-21.631c30.979-14.066,75.834-22.91,125.74-22.91C603.599,117.773,611.471,118.007,619.18,118.447
	"/>
<path fill-rule="evenodd" clip-rule="evenodd" fill="#E37268" d="M619.18,118.447c18.568,3.513,36.195,9.248,52.494,16.875
	c-0.145,2.768-0.586,5.787-1.363,9.087c-9.951,42.297-83.352,47.273-150.529,37.32c-42.644-6.316-53.201-25.165-55.228-38.092
	c1.748-1.006,3.515-1.993,5.3-2.954c30.979-14.066,75.834-22.91,125.74-22.91C603.599,117.773,611.471,118.007,619.18,118.447"/>
<path fill-rule="evenodd" clip-rule="evenodd" fill="#D0574D" d="M659.952,148.944c-0.619-7.417-2.78-21.319-41.401-23.482
	c-38.624-2.163-20.086-18.538-1.854-17.921C634.924,108.16,674.165,118.047,659.952,148.944"/>
<path fill="#D0574D" d="M482.545,148.377c-19.217-23.521-9.301-41.269,14.987-45.518c-3.085,48.029,55.714,61.711,102.874,39.378
	C595.553,180.889,512.531,185.084,482.545,148.377"/>
<path fill-rule="evenodd" clip-rule="evenodd" fill="#953229" d="M773.417,249.547c3.918,13.82,6.01,28.271,6.01,43.151
	c0,66.338-86.555,124.207-146.901,154.91l-99.781,6.424c-59.963-28.512-159.959-90.029-159.959-161.334
	c0-1.012,0.023-2.021,0.044-3.029l3.828-13.429C522.227,311.466,615.817,306.081,773.417,249.547"/>
<path fill="#953229" d="M766.938,231.049c4.726,11.245,8.193,23.023,10.258,35.205c-15.42,14.492-44.822,25.198-77.004,34.116
	c-32.027,8.873-70.363,15.082-109.568,18.283c-77.799,6.357-160.23,0.379-206.644-20.404c-3.591-1.607-7.442-3.83-11.183-6.512
	c0.086-13.712,1.935-27.058,5.358-39.87c0.451,0.632,0.912,1.261,1.382,1.884c-1.271,6.584,2.164,10.391,3.729,11.797
	c28.226,25.38,118.521,31.103,205.075,24.028c37.611-3.072,74.055-8.935,104.097-17.257c28.66-7.943,54.505-16.599,65.598-28.038
	c2.065-2.129,3.626-4.277,4.62-6.433C764.016,235.935,765.454,233.635,766.938,231.049"/>
<path fill="#953229" d="M741.167,188.59c7.179,8.738,13.478,18.068,18.784,27.893c-2.492,4.285-5.91,8.578-10.376,12.746
	c-7.357,6.625-17.232,12.591-28.986,17.78c-41.868,18.479-111.661,28.561-174.641,23.071c-36.425-3.176-85.031-20.701-109.99-34.016
	c-11.603-6.188-21.067-13.606-27.517-22.315c-3.015-4.069-5.183-8.455-6.592-12.942c4.182-6.083,8.765-11.929,13.721-17.509
	c3.698,1.045,8.488,2.114,13.365,3.096c-0.118,3.164,0.789,6.356,3.108,9.488c3.871,5.228,10.189,10.021,18.279,14.335
	c21.408,11.421,66.116,27.89,99.159,30.771c58.472,5.098,122.479-3.917,160.274-20.598c7.257-3.202,30.281-15.987,28.435-27.16
	C739.15,191.859,740.145,190.297,741.167,188.59"/>
<path fill="#B64B40" d="M671.106,127.854c5.209,1.479,10.328,3.134,15.346,4.959c1.461,3.453,2.452,7.033,2.95,10.678
	c1.192,8.697-0.476,17.524-5.211,25.732c-5.794,10.045-16.142,18.92-31.367,24.871c-55.778,21.806-140.677,10.341-171.971-4.462
	c-9.924-4.692-18.065-10.389-23.899-16.486c-4.734-4.949-8.74-11.276-10.925-17.461c6.547-4.782,13.44-9.213,20.646-13.255
	c3.191,0.699,6.588,1.379,9.875,2.001c-2.935,3.307-0.116,6.494,3.224,9.618c3.521,3.293,8.563,6.908,13.507,9.244
	c25.637,12.126,101.648,22.152,148.939,3.665c8.701-3.401,14.174-7.708,16.773-12.216c1.395-2.415,1.896-4.945,1.563-7.374
	c-0.15-1.092-0.475-2.202-0.973-3.321c0.301-0.173-0.808,0.766,0.803-0.535C661.995,142.212,667.139,135.263,671.106,127.854"/>
<path fill-rule="evenodd" clip-rule="evenodd" fill="#9E82BC" d="M784.623,318.683c-11.593,1.398-23.188-8.723-34.781-7.545
	c-11.594,1.174-23.144,13.924-34.737,14.92c-11.595,0.996-23.209-9.951-34.781-9.262c-11.572,0.691-23.145,13.141-34.738,13.67
	c-11.594,0.467-23.146-11.117-34.738-10.893c-11.595,0.223-23.166,12.344-34.74,12.336c-11.572-0.012-23.188-12.199-34.78-12.443
	c-11.595-0.242-23.147,11.414-34.739,10.914c-11.592-0.496-23.208-13.053-34.779-13.754c-11.574-0.699-23.146,10.322-34.742,9.326
	c-11.592-0.994-23.144-13.766-34.737-14.92c-11.593-1.156-23.187,9.006-34.739,7.65c12.512,30.35,25.078,61.111,37.534,92.004
	c12.565,31.162,25.021,62.395,37.533,93.869c44.456,5.043,88.942,8.953,133.407,8.73c44.483-0.221,88.955-4.578,133.453-9.748
	c12.51-31.156,24.979-62.215,37.531-93.148C759.515,379.669,772.071,349.011,784.623,318.683"/>
<path fill-rule="evenodd" clip-rule="evenodd" fill="#D0BCDC" d="M776.825,337.522c-9.967-0.592-19.185-6.889-29.861-5.742
	c-10.675,1.145-22.748,12.262-34.154,13.289c-11.404,1.027-22.812-8.086-34.196-7.354c-11.384,0.73-22.771,11.379-34.154,11.91
	c-11.428,0.51-22.813-9.23-34.196-8.986c-11.385,0.244-22.75,10.553-34.156,10.553s-22.813-10.318-34.196-10.572
	c-11.386-0.254-22.79,9.537-34.196,9.027s-22.771-11.232-34.156-11.977c-11.385-0.74-22.791,8.404-34.196,7.377
	c-11.406-1.029-23.478-12.166-34.155-13.289c-10.675-1.125-19.892,5.172-29.859,5.764c10.593,25.9,21.228,52.021,31.777,78.23
	c10.635,26.416,21.186,52.855,31.821,79.477c45.706,5.277,91.401,9.348,137.118,9.135c45.738-0.213,91.416-4.705,137.164-10.068
	c10.593-26.342,21.146-52.656,31.777-78.883C755.556,389.378,766.19,363.358,776.825,337.522"/>
<path fill-rule="evenodd" clip-rule="evenodd" fill="#AC90C3" d="M386.147,333.942c10.843,25.561,21.682,51.209,32.529,77.104
	c10.84,25.879,21.686,51.947,32.569,78.018c-3.377-24.756-6.798-49.512-10.133-74.203c-3.336-24.691-6.45-47.352-9.787-71.914
	c-8.465-3.604-18.093-12.025-25.578-12.82S392.696,331.991,386.147,333.942 M499.623,493.872c-0.084-24.67-0.21-49.318-0.25-73.988
	c-0.042-24.648-0.165-47.568-0.206-72.217c-8.425-3.35-17.727-11.213-25.275-11.689s-13.344,2.545-20.019,4.938
	c7.591,25.369,15.267,50.865,22.854,76.342C484.32,442.753,491.99,468.356,499.623,493.872 M553.961,496.312
	c1.752-24.926,3.506-49.871,5.254-74.795c1.752-24.945,3.385-48.182,5.138-73.15c-7.466-3.074-15.271-9.34-22.319-9.486
	c-7.047-0.148-13.22,3.158-19.807,5.809c5.253,25.305,10.596,50.59,15.846,75.854C543.33,445.847,548.667,471.089,553.961,496.312
	 M607.174,495.8c3.795-25.219,7.592-50.42,11.387-75.574c3.795-25.18,7.363-48.867,11.158-74.025
	c-6.588-2.67-12.534-7.424-19.584-7.277c-7.047,0.148-14.972,4.686-22.436,7.779c3.21,24.879,6.501,49.783,9.716,74.688
	C600.622,446.208,603.922,471.005,607.174,495.8 M655.885,492.899c7.047-25.455,14.141-50.846,21.185-76.152
	c7.05-25.324,13.749-49.256,20.839-74.457c-6.673-2.33-12.082-6.715-19.629-6.25c-7.548,0.465-16.85,6.57-25.273,9.875
	c0.459,24.502,0.959,49.023,1.418,73.525C654.883,443.94,655.383,468.419,655.885,492.899 M700.924,488.255
	c10.842-25.98,21.679-51.84,32.528-77.592c10.834-25.709,20.94-50.209,31.826-75.684c-6.547-1.93-11.371-5.604-18.855-4.809
	c-7.486,0.793-17.587,9.381-26.053,12.984c-3.378,24.416-6.063,46.76-9.396,71.283C707.635,438.999,704.26,463.63,700.924,488.255"
	/>
<path fill-rule="evenodd" clip-rule="evenodd" fill="#D0BCDC" d="M784.623,318.683c-11.593,1.398-23.188-8.723-34.781-7.545
	c-11.594,1.174-23.144,13.924-34.737,14.92c-11.595,0.996-23.209-9.949-34.781-9.262c-11.572,0.691-23.145,13.141-34.738,13.67
	c-11.594,0.467-23.146-11.117-34.738-10.893c-11.595,0.223-23.166,12.344-34.74,12.336c-11.572-0.012-23.188-12.199-34.78-12.443
	c-11.593-0.242-23.147,11.414-34.739,10.914c-11.592-0.496-23.208-13.053-34.779-13.754c-11.574-0.699-23.146,10.322-34.74,9.326
	s-23.146-13.766-34.739-14.92c-11.593-1.156-23.187,9.006-34.739,7.65c1.002,2.502,2.045,4.98,3.087,7.461
	c10.552-0.404,20.58-8.764,31.652-7.631c11.073,1.135,23.146,13.998,34.739,15.027c11.594,1.027,23.166-9.994,34.74-9.262
	c11.571,0.73,23.188,13.309,34.779,13.818s23.146-11.139,34.739-10.893c11.593,0.242,23.208,12.451,34.78,12.461
	c11.574,0.01,23.146-12.143,34.74-12.379c11.592-0.23,23.145,11.34,34.738,10.854c11.594-0.529,23.166-13.004,34.738-13.715
	c11.574-0.709,23.187,10.195,34.781,9.178c11.594-1.016,23.666-13.85,34.737-15.006c11.074-1.152,21.102,7.164,31.654,7.547
	C782.538,323.663,783.581,321.161,784.623,318.683"/>
<path fill-rule="evenodd" clip-rule="evenodd" fill="#9E82BC" d="M720.609,425.31c7.422-15.535,14.874-31.074,22.312-46.584
	c7.409-15.453,14.929-30.859,22.393-46.246c-6.547-0.869-12.114-4.77-19.599-3.984c-7.486,0.785-16.891,7.609-25.355,10.088
	c0.042,14.477,0.082,28.953,0.124,43.385C720.525,396.38,720.567,410.878,720.609,425.31"/>
<path fill-rule="evenodd" clip-rule="evenodd" fill="#9E82BC" d="M665.56,430.821c5.295-15.303,10.631-30.563,15.93-45.824
	c5.292-15.236,10.677-30.496,16.015-45.691c-6.674-1.209-12.469-5.48-20.018-5.023c-7.549,0.455-16.89,6.992-25.313,9.154
	c2.209,14.625,4.46,29.227,6.671,43.787C661.054,401.763,663.307,416.323,665.56,430.821"/>
<path fill-rule="evenodd" clip-rule="evenodd" fill="#9E82BC" d="M608.3,433.937c3.461-15.152,6.922-30.33,10.385-45.461
	c3.459-15.111,6.921-30.266,10.427-45.398c-6.631-1.545-12.805-6.125-19.853-5.979c-7.047,0.15-14.97,5.576-22.478,7.484
	c3.588,14.961,7.168,29.863,10.76,44.783C601.124,404.243,604.715,419.101,608.3,433.937"/>
<path fill-rule="evenodd" clip-rule="evenodd" fill="#9E82BC" d="M548.041,434.231c2.585-14.92,5.175-29.859,7.757-44.781
	c2.59-14.963,5.172-29.906,7.756-44.891c-7.508-1.885-15.408-7.385-22.479-7.545c-7.068-0.158-13.262,4.473-19.85,5.979
	c4.461,15.217,8.924,30.477,13.387,45.65C539.074,403.819,543.537,419.058,548.041,434.231"/>
<path fill-rule="evenodd" clip-rule="evenodd" fill="#9E82BC" d="M487.655,431.351c1.75-14.623,3.504-29.291,5.252-43.936
	c1.754-14.666,3.504-29.396,5.256-44.105c-8.465-2.205-17.767-8.752-25.313-9.238c-7.548-0.49-13.346,3.836-20.021,5.064
	c5.8,15.301,11.596,30.689,17.393,46.055S481.815,415.964,487.655,431.351"/>
<path fill-rule="evenodd" clip-rule="evenodd" fill="#9E82BC" d="M429.227,425.479c-7.465-15.641-14.945-31.291-22.396-46.902
	c-7.396-15.5-14.886-30.965-22.311-46.414c6.548-0.85,12.096-4.77,19.602-3.986s16.89,7.695,25.313,10.174
	c-0.04,14.539-0.124,29.078-0.124,43.576C429.311,396.444,429.227,410.962,429.227,425.479"/>
<path fill-rule="evenodd" clip-rule="evenodd" fill="#D0574D" d="M528.477,163.225c19.082,8.85,46.631,10.193,68.656-8.745
	c9.195-7.907,20.148-27.061,23.207-38.319c9.111-33.543-13.436-57.184-40.146-69.567c-26.711-12.385-63.924-19.051-76.377,13.292
	C491.36,92.229,501.43,150.686,528.477,163.225"/>
<path fill="#FFEED2" d="M762.839,223.883c-1.812-3.646-7.569-13.666-9.342-16.859c17.204-7.615,53.935,14.471,24.736,51.98
	c-14.883,15.348-45.303,26.533-78.71,35.79c-32.029,8.873-70.365,15.082-109.569,18.285c-77.798,6.357-160.231,0.379-206.644-20.404
	c-17.895-8.015-42.295-31.272-26.672-50.77c7.054-8.803,21.087-10.195,27.232-8.633c-1.359,3.518-2.944,8.025-4.482,12.873
	c-2.49,7.842,1.489,12.281,3.209,13.83c28.227,25.381,118.521,31.101,205.075,24.029c37.612-3.072,74.055-8.936,104.097-17.262
	c28.659-7.939,54.506-16.595,65.598-28.035C762.108,233.821,764.194,228.829,762.839,223.883"/>
<path fill-rule="evenodd" clip-rule="evenodd" fill="#FFF6E6" d="M355.743,248.217c4.493-6.053,14.954-12.914,27.579-13.543
	c-0.828,2.09-1.614,4.195-2.354,6.32C372.6,241.381,363.593,243.725,355.743,248.217"/>
<path fill="#792320" d="M717.604,165.704c36.283-15.896,66.713,24.902,31.302,57.949c-7.356,6.625-17.233,12.594-28.986,17.781
	c-41.868,18.478-111.661,28.562-174.64,23.072c-36.426-3.178-85.031-20.699-109.992-34.015
	c-11.602-6.189-21.066-13.607-27.516-22.316c-22.307-30.117,10.707-83.711,54.22-62.988c-23.564,13.198-40.907,31.222-30.616,45.121
	c3.87,5.227,10.189,10.018,18.277,14.334c21.41,11.42,66.117,27.889,99.16,30.77c58.472,5.1,122.479-3.916,160.274-20.598
	c8.29-3.658,37.171-19.83,26.01-31.809C730.278,177.833,724.208,171.75,717.604,165.704"/>
<path fill-rule="evenodd" clip-rule="evenodd" fill="#993B33" d="M414.831,156.261c6.235-8.399,23.965-18.36,43.023-11.052
	c11.021,4.229,6.436,7.136-6.434,4.599C440.577,147.67,426.435,149.618,414.831,156.261"/>
<path fill="#FFEED2" d="M630.264,121.436c-7.934-1.385-28.482-2.058-43.51-0.787c10.473-28.393,72.274-27.124,90.748-6.363
	c6.262,7.035,10.07,15.154,11.23,23.63c1.192,8.698-0.476,17.526-5.211,25.732c-5.794,10.045-16.143,18.924-31.367,24.873
	c-55.777,21.807-140.677,10.34-171.971-4.461c-9.924-4.693-18.066-10.393-23.898-16.486c-7.217-7.543-12.736-18.285-12.703-26.842
	c0.166-41.565,64.05-23.876,68.523-17.033c-11.544,4.116-21.428,7.557-30.482,11.498c-10.66,4.638-7.074,9.018-2.52,13.278
	c3.521,3.293,8.564,6.907,13.507,9.245c25.636,12.125,101.648,22.153,148.94,3.663c8.699-3.4,14.172-7.707,16.773-12.214
	c1.394-2.416,1.895-4.945,1.562-7.375c-0.364-2.653-1.774-5.44-4.163-8.124C650.781,128.113,642.195,123.564,630.264,121.436"/>
<path fill-rule="evenodd" clip-rule="evenodd" fill="#FFF6E6" d="M450.931,125.916c5.317-7.154,19.707-12.703,37.927-7.791
	c10.372,2.799,5.36,12.042-4.166,5.05C477.711,118.053,459.735,120.697,450.931,125.916"/>
<path fill-rule="evenodd" clip-rule="evenodd" fill="#FACE8C" d="M476.199,138.521c1.487-4.024,3.163-6.816,14.442-7.011
	C501.924,131.316,486.061,131.783,476.199,138.521"/>
<path fill="#FACE8C" d="M630.03,121.787c-7.934-1.386-28.248-2.408-43.274-1.139c0.403-1.096,0.893-2.143,1.444-3.15
	c2.535-0.676,5.666-1.213,9.496-1.564c52.311-4.797,62.355,15.068,62.19,25.858c-0.364-2.652-1.774-5.44-4.163-8.124
	C650.78,128.112,641.961,123.915,630.03,121.787"/>
<path fill="#FFF6E6" d="M600.264,107.291c22.386-11.778,62.308-7.355,76.536,8.633c-16.066-10.244-46.505-13.81-64.984-7.891
	C593.338,113.951,604.543,110.832,600.264,107.291"/>
<path fill="#FFF6E6" d="M476.199,138.521c-4.312,18.357,52.354,29.726,59.882,30.699c38.376,4.959,83.23,0.857,105.471-7.838
	c8.699-3.4,14.172-7.707,16.772-12.214c1.396-2.416,1.896-4.945,1.562-7.375c-0.362-2.653-1.773-5.44-4.162-8.124
	c20.268,19.726-11.191,40.254-76.588,43.922c-45.345,2.541-83.938-8.141-99.604-21.508
	C475.21,152.394,468.471,143.414,476.199,138.521"/>
<path fill-rule="evenodd" clip-rule="evenodd" fill="#FACE8C" d="M446.036,128.542c-5.365,29.909,45.086,62.416,129.087,64.611
	c65.521,1.715,117.879-25.428,112.901-59.063c0.297,1.265,0.533,2.54,0.71,3.824c1.191,8.698-0.478,17.527-5.212,25.733
	c-5.795,10.045-16.143,18.922-31.366,24.875c-55.778,21.805-140.679,10.338-171.972-4.463c-9.924-4.695-18.066-10.393-23.898-16.488
	c-7.216-7.543-12.737-18.284-12.702-26.84c0.009-2.193,0.203-4.213,0.55-6.084c0.528-1.977,1.137-3.986,1.877-6.045L446.036,128.542
	z"/>
<path fill="#993B33" d="M740.497,189.045c9.197,21.227-54.011,52.482-111.244,59.521c-59.686,7.336-120.906,0.068-166.336-21.039
	c-45.429-21.107-45.455-47.756-31.758-59.986c-5.059,7.67-6.342,16.148-1.422,24.404c3.329,5.584,11.827,11.934,19.917,16.248
	c21.408,11.42,66.116,27.887,99.159,30.77c58.471,5.102,122.479-3.916,160.275-20.598
	C716.088,215.278,740.636,199.92,740.497,189.045"/>
<path fill="#6B1B17" d="M402.362,173.536c-0.311,17.133,1.91,38.83,63.783,61.494c61.874,22.666,89.949,25.636,163.339,20.25
	c42.991-3.154,121.75-24.209,134.528-56.65c-1.599,8.162-6.328,16.832-15.106,25.023c-7.356,6.625-17.233,12.594-28.985,17.781
	c-41.869,18.478-111.662,28.562-174.642,23.072c-36.424-3.178-85.03-20.699-109.991-34.015
	c-11.601-6.189-21.066-13.607-27.515-22.316C400.621,198.52,399.166,185.29,402.362,173.536"/>
<path fill="#FFF6E6" d="M379.045,247.37c-1.729,7.082,1.924,11.14,3.553,12.605c28.226,25.379,118.521,31.101,205.076,24.029
	c37.61-3.072,74.054-8.936,104.097-17.262c28.659-7.938,54.504-16.597,65.597-28.035c1.526-1.572,2.778-3.156,3.727-4.746
	c-11.808,38.072-87.74,50.576-169.227,59.692c-81.488,9.119-145.675,0.303-176.648-8.548
	C384.245,276.256,372.493,259.1,379.045,247.37"/>
<path fill="#FACE8C" d="M789.02,229.85c0.782,8.08-2.046,17.926-10.786,29.154c-14.883,15.348-45.302,26.533-78.711,35.79
	c-32.028,8.873-70.364,15.082-109.567,18.287c-77.8,6.354-160.231,0.377-206.645-20.406c-15.088-6.757-34.801-24.351-31.249-41.391
	c0.159,0.074,0.314,0.125,0.476,0.205c28.653,68.782,181.991,58.895,239.943,54.12C635.432,302.069,770.797,290.966,789.02,229.85"
	/>
<path fill="#81A73F" d="M534.729,97.248c28.53-50.699,60.164-88.898,101.238-97.093c9.934-1.979,10.337,15.648,0.036,15.002
	c-35.2-2.201-70.478,34.872-99.599,83.116L534.729,97.248z"/>
<path fill-rule="evenodd" clip-rule="evenodd" fill="#C91F3D" d="M528.266,155.778c28.721,12.714,84.088-17.307,99.47-49.142
	c15.378-31.835-16.19-56.543-44.554-69.098c-28.362-12.557-67.877-19.313-81.104,13.476
	C488.852,83.801,499.544,143.065,528.266,155.778"/>
<path fill-rule="evenodd" clip-rule="evenodd" fill="#E02744" d="M532.985,145.642c26.138,11.57,76.61-15.938,90.668-45.046
	c14.058-29.105-14.658-51.632-40.471-63.058C557.37,26.113,521.391,20,509.294,49.975
	C497.198,79.948,506.845,134.072,532.985,145.642"/>
<path fill-rule="evenodd" clip-rule="evenodd" fill="#F1647C" d="M557.569,91.404c19.727,8.732,53.123-1.427,60.405-15.879
	c7.283-14.452-15.311-29.364-34.792-37.987c-19.48-8.622-45.709-15.322-51.513-0.216C525.868,52.429,537.842,82.673,557.569,91.404"
	/>
<path fill-rule="evenodd" clip-rule="evenodd" fill="#C91F3D" d="M599.367,70.521c-2.372,0.566-4.618,2.825-5.61,5.964
	c-0.996,3.141-0.464,6.28,1.15,8.11c2.372-0.567,4.617-2.825,5.611-5.965C601.514,75.49,600.979,72.35,599.367,70.521"/>
<path fill-rule="evenodd" clip-rule="evenodd" fill="#C91F3D" d="M571.914,53.423c1.401,1.995,1.588,5.175,0.256,8.187
	c-1.334,3.013-3.813,5.012-6.233,5.315c-1.402-1.996-1.588-5.175-0.256-8.187C567.012,55.728,569.493,53.727,571.914,53.423"/>
<path fill-rule="evenodd" clip-rule="evenodd" fill="#84A33D" d="M527.141,8.675c19.644,17.444,57.07-3.702,56.309,29.72
	C581.582,45.454,534.534,54.69,527.141,8.675"/>
<path fill-rule="evenodd" clip-rule="evenodd" fill="#AFCC5D" d="M527.141,8.675c19.644,17.444,57.07-3.702,56.309,29.72
	c-0.042,0.156-0.114,0.313-0.198,0.472C547.378,35.21,537.949,22.706,527.141,8.675"/>
<path fill-rule="evenodd" clip-rule="evenodd" fill="#84A33D" d="M640.718,58.501c-25.274-2.167-35.334-42.439-58.241-19.693
	C578.771,44.808,603.569,83.905,640.718,58.501"/>
<path fill-rule="evenodd" clip-rule="evenodd" fill="#AFCC5D" d="M640.718,58.501c-25.274-2.167-35.334-42.439-58.241-19.693
	c-0.082,0.132-0.146,0.288-0.201,0.452C608.68,61.962,623.706,60.257,640.718,58.501"/>
<path fill-rule="evenodd" clip-rule="evenodd" fill="#C91F3D" d="M576.885,73.981c1.403,1.995,1.59,5.175,0.256,8.188
	c-1.332,3.01-3.812,5.011-6.23,5.314c-1.402-1.996-1.59-5.177-0.256-8.188C571.987,76.287,574.467,74.285,576.885,73.981"/>
<path fill-rule="evenodd" clip-rule="evenodd" fill="#C91F3D" d="M565.167,101.836c1.403,1.996,1.59,5.176,0.256,8.188
	c-1.332,3.011-3.812,5.012-6.231,5.313c-1.403-1.994-1.59-5.176-0.256-8.187C560.268,104.14,562.749,102.141,565.167,101.836"/>
<path fill-rule="evenodd" clip-rule="evenodd" fill="#C91F3D" d="M550.321,127.082c1.402,1.995,1.59,5.176,0.256,8.188
	c-1.332,3.012-3.813,5.011-6.232,5.314c-1.402-1.995-1.588-5.175-0.256-8.187C545.422,129.388,547.902,127.387,550.321,127.082"/>
<path fill-rule="evenodd" clip-rule="evenodd" fill="#C91F3D" d="M552.741,46.208c1.174,2.138,1.01,5.317-0.645,8.165
	s-4.339,4.564-6.777,4.6c-1.175-2.137-1.012-5.318,0.644-8.164C547.618,47.961,550.3,46.245,552.741,46.208"/>
<path fill-rule="evenodd" clip-rule="evenodd" fill="#C91F3D" d="M534.747,65.13c1.29,2.07,1.299,5.255-0.197,8.188
	c-1.498,2.935-4.084,4.793-6.516,4.963c-1.29-2.07-1.301-5.255,0.197-8.188C529.727,67.158,532.315,65.3,534.747,65.13"/>
<path fill-rule="evenodd" clip-rule="evenodd" fill="#C91F3D" d="M529.096,94.475c1.59,1.85,2.084,4.995,1.047,8.122
	c-1.035,3.126-3.311,5.357-5.689,5.894c-1.588-1.852-2.081-4.997-1.045-8.124C524.445,97.24,526.717,95.01,529.096,94.475"/>
<path fill-rule="evenodd" clip-rule="evenodd" fill="#C91F3D" d="M532.752,41.43c0.672,2.346-0.194,5.409-2.442,7.817
	c-2.245,2.409-5.244,3.485-7.629,2.979c-0.671-2.345,0.196-5.409,2.442-7.818C527.37,42,530.367,40.922,532.752,41.43"/>
<path fill-rule="evenodd" clip-rule="evenodd" fill="#C91F3D" d="M518.975,77.718c1.393,2.001,1.564,5.184,0.218,8.188
	c-1.347,3.005-3.835,4.994-6.257,5.286c-1.393-2.002-1.564-5.183-0.217-8.188C514.065,79.997,516.555,78.009,518.975,77.718"/>
<path fill-rule="evenodd" clip-rule="evenodd" fill="#C91F3D" d="M515.756,55.5c1.291,2.07,1.301,5.256-0.197,8.188
	c-1.497,2.933-4.084,4.793-6.516,4.963c-1.289-2.07-1.301-5.255,0.198-8.188C510.738,57.528,513.324,55.67,515.756,55.5"/>
<path fill-rule="evenodd" clip-rule="evenodd" fill="#C91F3D" d="M525.196,115.463c2.104,1.234,3.59,4.051,3.625,7.344
	c0.035,3.295-1.393,6.142-3.471,7.421c-2.101-1.236-3.59-4.052-3.625-7.347C521.691,119.59,523.118,116.741,525.196,115.463"/>
<path fill-rule="evenodd" clip-rule="evenodd" fill="#C91F3D" d="M514.053,101.745c2.01,1.38,3.293,4.296,3.096,7.583
	c-0.2,3.287-1.826,6.026-3.988,7.154c-2.01-1.38-3.294-4.296-3.095-7.584C510.264,105.613,511.891,102.872,514.053,101.745"/>
<path fill-rule="evenodd" clip-rule="evenodd" fill="#C91F3D" d="M555.18,65.027c-2.439,0.053-5.113,1.784-6.75,4.643
	c-1.639,2.855-1.782,6.039-0.595,8.168c2.439-0.051,5.113-1.784,6.75-4.641C556.223,70.34,556.367,67.156,555.18,65.027"/>
<path fill-rule="evenodd" clip-rule="evenodd" fill="#C91F3D" d="M594.832,88.669c-2.399,0.436-4.765,2.569-5.931,5.65
	c-1.164,3.08-0.801,6.246,0.709,8.159c2.4-0.436,4.765-2.569,5.929-5.65C596.705,93.747,596.342,90.582,594.832,88.669"/>
<path fill-rule="evenodd" clip-rule="evenodd" fill="#C91F3D" d="M579.517,109.449c-2.438,0.067-5.101,1.818-6.717,4.688
	c-1.619,2.869-1.741,6.051-0.537,8.173c2.437-0.067,5.099-1.818,6.717-4.687C580.597,114.755,580.719,111.57,579.517,109.449"/>
<path fill-rule="evenodd" clip-rule="evenodd" fill="#C91F3D" d="M614.118,77.447c-2.185,1.08-3.871,3.781-4.144,7.064
	c-0.272,3.281,0.944,6.224,2.923,7.649c2.188-1.079,3.874-3.781,4.146-7.064C617.316,81.814,616.097,78.871,614.118,77.447"/>
<path fill-rule="evenodd" clip-rule="evenodd" fill="#C91F3D" d="M596.52,112.044c-2.419,0.314-4.891,2.324-6.209,5.343
	c-1.318,3.017-1.117,6.196,0.294,8.185c2.419-0.314,4.89-2.324,6.209-5.343C598.131,117.211,597.931,114.031,596.52,112.044"/>
<path fill-rule="evenodd" clip-rule="evenodd" fill="#C91F3D" d="M615.129,99.488c-2.399,0.438-4.765,2.571-5.931,5.652
	c-1.164,3.08-0.801,6.245,0.709,8.159c2.4-0.438,4.765-2.57,5.931-5.65C617.002,104.568,616.64,101.403,615.129,99.488"/>
<path fill-rule="evenodd" clip-rule="evenodd" fill="#C91F3D" d="M564.396,132.816c-2.328-0.728-5.414,0.063-7.875,2.253
	c-2.462,2.188-3.608,5.158-3.16,7.557c2.328,0.727,5.413-0.066,7.874-2.253C563.696,138.183,564.846,135.213,564.396,132.816"/>
<path fill-rule="evenodd" clip-rule="evenodd" fill="#C91F3D" d="M583.687,129.509c-2.374-0.559-5.396,0.449-7.694,2.808
	c-2.302,2.356-3.234,5.4-2.617,7.762c2.373,0.559,5.395-0.45,7.694-2.807C583.372,134.914,584.305,131.87,583.687,129.509"/>
<path fill-rule="evenodd" clip-rule="evenodd" fill="#C91F3D" d="M551.17,86.462c1.4,1.995,1.588,5.176,0.254,8.187
	c-1.332,3.011-3.813,5.012-6.23,5.313c-1.403-1.993-1.59-5.175-0.256-8.187C546.27,88.765,548.75,86.766,551.17,86.462"/>
<path fill-rule="evenodd" clip-rule="evenodd" fill="#C91F3D" d="M545.129,112.546c1.402,1.996,1.59,5.175,0.256,8.188
	c-1.334,3.01-3.813,5.011-6.232,5.313c-1.401-1.995-1.588-5.175-0.256-8.187C540.231,114.852,542.71,112.85,545.129,112.546"/>
<path fill-rule="evenodd" clip-rule="evenodd" fill="#C91F3D" d="M538.293,137.668c1.4,1.995,1.588,5.176,0.256,8.187
	c-1.334,3.011-3.814,5.012-6.232,5.313c-1.403-1.994-1.59-5.174-0.256-8.187C533.395,139.971,535.873,137.972,538.293,137.668"/>
<path fill-rule="evenodd" clip-rule="evenodd" fill="#84A33D" d="M599.421,78.062c-10.468-14.174,8.046-41.591-16.458-39.404
	C578.135,39.479,569.129,70.351,599.421,78.062"/>
<path fill-rule="evenodd" clip-rule="evenodd" fill="#AFCC5D" d="M599.421,78.062c-10.468-14.174,5.915-37.898-16.458-39.404
	c-0.105,0.018-0.216,0.056-0.327,0.104C582.916,62.945,590.701,69.997,599.421,78.062"/>
<path fill="#F7A8B5" d="M485.061,141.397c-19.216-23.522-12.84-56.498,11.448-60.745c-3.085,48.028,59.255,76.938,106.415,54.605
	C598.071,173.909,515.049,178.104,485.061,141.397"/>
<path fill="#F595A5" d="M485.061,141.397c-12.023-14.719-14.027-33.14-7.891-45.907c-7.897,32.228,41.246,86.764,119.859,53.474
	C576.681,174.292,511.014,173.165,485.061,141.397"/>
<path fill="#FAC6CF" d="M492.284,87.05c-1.5,46.989,59.898,74.941,106.489,52.876c-49.891,40.948-131.034-14.982-106.497-52.867
	L492.284,87.05z"/>
<path fill="#F595A5" d="M496.445,85.938c1.616,44.823,61.077,70.819,106.479,49.32C536.004,174.292,483.504,109.539,496.445,85.938"
	/>
<path fill="#993B33" d="M720.336,168.106c14.445-4.416,32.624,0.971,40.054,13.777c-8.778-8.586-24.137-12.477-35.973-10.033
	C723.075,170.586,721.716,169.338,720.336,168.106"/>
<path fill="#FFF6E6" d="M760.345,208.959c9.138,1.795,17.545,6.82,22.033,14.557c-6.087-5.953-15.333-9.646-24.378-10.539
	C758.874,211.635,759.652,210.297,760.345,208.959"/>
</svg>
